<svg width="1600" height="500" viewBox="0 0 1600 500" fill="none" xmlns="http://www.w3.org/2000/svg" role="img" aria-labelledby="title desc">
  <title id="title">Agent Token Optimization Workflow Banner</title>
  <desc id="desc">Abstract banner showing context layers converging into orbital rings around a token core.</desc>
  <defs>
    <linearGradient id="bg" x1="0" y1="0" x2="1600" y2="500" gradientUnits="userSpaceOnUse">
      <stop stop-color="#F8FBFF"/>
      <stop offset="1" stop-color="#EEF4FF"/>
    </linearGradient>
    <linearGradient id="layerA" x1="78" y1="126" x2="286" y2="126" gradientUnits="userSpaceOnUse">
      <stop stop-color="#DCEAFE"/>
      <stop offset="1" stop-color="#C7D8FB"/>
    </linearGradient>
    <linearGradient id="layerB" x1="90" y1="206" x2="298" y2="206" gradientUnits="userSpaceOnUse">
      <stop stop-color="#D7EEFF"/>
      <stop offset="1" stop-color="#BFE0FF"/>
    </linearGradient>
    <linearGradient id="layerC" x1="102" y1="286" x2="310" y2="286" gradientUnits="userSpaceOnUse">
      <stop stop-color="#D6F6E8"/>
      <stop offset="1" stop-color="#B5EFD6"/>
    </linearGradient>
    <linearGradient id="orbit" x1="300" y1="132" x2="520" y2="292" gradientUnits="userSpaceOnUse">
      <stop stop-color="#C9D8FF"/>
      <stop offset="1" stop-color="#8FB5F5"/>
    </linearGradient>
    <linearGradient id="token" x1="444" y1="166" x2="552" y2="274" gradientUnits="userSpaceOnUse">
      <stop stop-color="#FB923C"/>
      <stop offset="1" stop-color="#EA580C"/>
    </linearGradient>
    <filter id="soft" x="0" y="0" width="1600" height="500" filterUnits="userSpaceOnUse">
      <feGaussianBlur stdDeviation="10"/>
    </filter>
    <filter id="shadow" x="36" y="76" width="560" height="300" filterUnits="userSpaceOnUse">
      <feDropShadow dx="0" dy="10" stdDeviation="12" flood-color="#A9BFE9" flood-opacity="0.22"/>
    </filter>
  </defs>

  <rect width="1600" height="500" rx="28" fill="url(#bg)"/>

  <g opacity="0.55">
    <path d="M84 79H1516" stroke="#D7E3F8" stroke-width="2"/>
    <path d="M84 151H1516" stroke="#D7E3F8" stroke-width="2"/>
    <path d="M84 223H1516" stroke="#D7E3F8" stroke-width="2"/>
    <path d="M84 295H1516" stroke="#D7E3F8" stroke-width="2"/>
    <path d="M84 367H1516" stroke="#D7E3F8" stroke-width="2"/>
    <path d="M84 439H1516" stroke="#D7E3F8" stroke-width="2"/>
    <path d="M120 52V452" stroke="#D7E3F8" stroke-width="2"/>
    <path d="M248 52V452" stroke="#D7E3F8" stroke-width="2"/>
    <path d="M376 52V452" stroke="#D7E3F8" stroke-width="2"/>
    <path d="M504 52V452" stroke="#D7E3F8" stroke-width="2"/>
    <path d="M632 52V452" stroke="#D7E3F8" stroke-width="2"/>
    <path d="M760 52V452" stroke="#D7E3F8" stroke-width="2"/>
    <path d="M888 52V452" stroke="#D7E3F8" stroke-width="2"/>
    <path d="M1016 52V452" stroke="#D7E3F8" stroke-width="2"/>
    <path d="M1144 52V452" stroke="#D7E3F8" stroke-width="2"/>
    <path d="M1272 52V452" stroke="#D7E3F8" stroke-width="2"/>
    <path d="M1400 52V452" stroke="#D7E3F8" stroke-width="2"/>
  </g>

  <g filter="url(#soft)" opacity="0.30">
    <circle cx="1366" cy="116" r="84" fill="#B9D8FF"/>
    <circle cx="1486" cy="182" r="70" fill="#D9E8FF"/>
    <circle cx="1288" cy="356" r="92" fill="#BDEFD8"/>
  </g>

  <g filter="url(#shadow)">
    <rect x="88" y="104" width="232" height="48" rx="18" fill="url(#layerA)" stroke="#A7C2F4" stroke-width="4"/>
    <rect x="88" y="184" width="232" height="48" rx="18" fill="url(#layerB)" stroke="#8FC0F7" stroke-width="4"/>
    <rect x="88" y="264" width="232" height="48" rx="18" fill="url(#layerC)" stroke="#7ED5C1" stroke-width="4"/>

    <path d="M320 128C352 128 372 144 394 170" stroke="#7A98DC" stroke-width="5" stroke-linecap="round"/>
    <path d="M320 208C356 208 382 208 412 208" stroke="#7A98DC" stroke-width="5" stroke-linecap="round"/>
    <path d="M320 288C352 288 372 272 394 246" stroke="#7A98DC" stroke-width="5" stroke-linecap="round"/>

    <ellipse cx="472" cy="208" rx="84" ry="74" fill="url(#orbit)" opacity="0.16"/>
    <ellipse cx="472" cy="208" rx="84" ry="74" stroke="#90B4F2" stroke-width="5"/>
    <ellipse cx="472" cy="208" rx="56" ry="48" stroke="#B9D1FB" stroke-width="5"/>
    <ellipse cx="472" cy="208" rx="112" ry="96" stroke="#E0EAFE" stroke-width="4" stroke-dasharray="10 12"/>

    <path d="M396 170C424 158 452 152 472 152" stroke="#5E84CF" stroke-width="3.5" stroke-linecap="round"/>
    <path d="M412 208C436 208 452 208 472 208" stroke="#5E84CF" stroke-width="3.5" stroke-linecap="round"/>
    <path d="M396 246C424 258 452 264 472 264" stroke="#5E84CF" stroke-width="3.5" stroke-linecap="round"/>

    <circle cx="472" cy="208" r="48" fill="url(#token)" stroke="#C2410C" stroke-width="6"/>
    <circle cx="472" cy="208" r="16" fill="#FFF7ED" opacity="0.95"/>
  </g>

  <g transform="translate(620 118)">
    <rect x="0" y="12" width="144" height="24" rx="12" fill="#DBEAFE"/>
    <text x="72" y="29" text-anchor="middle" font-family="Segoe UI, Arial, sans-serif" font-size="13" font-weight="700" fill="#1D4ED8">LOW TOKEN WORKFLOW</text>
    <text x="0" y="110" font-family="Segoe UI, Arial, sans-serif" font-size="72" font-weight="800" fill="#102A43">Agent Token</text>
    <text x="0" y="188" font-family="Segoe UI, Arial, sans-serif" font-size="72" font-weight="800" fill="#102A43">Optimization Workflow</text>
    <text x="2" y="246" font-family="Segoe UI, Arial, sans-serif" font-size="28" font-weight="600" fill="#24507A">Reduce token cost without hurting agent quality.</text>
    <text x="2" y="292" font-family="Segoe UI, Arial, sans-serif" font-size="24" font-weight="400" fill="#476582">Docs, SOPs, templates, and patterns for low-token agent development.</text>
    <g transform="translate(0 334)">
      <rect x="0" y="0" width="126" height="38" rx="19" fill="#E8F1FF"/>
      <text x="63" y="24" text-anchor="middle" font-family="Segoe UI, Arial, sans-serif" font-size="18" font-weight="700" fill="#1E40AF">Codex</text>
      <rect x="142" y="0" width="176" height="38" rx="19" fill="#EAF7FF"/>
      <text x="230" y="24" text-anchor="middle" font-family="Segoe UI, Arial, sans-serif" font-size="18" font-weight="700" fill="#0369A1">Claude Code</text>
      <rect x="334" y="0" width="232" height="38" rx="19" fill="#ECFDF5"/>
      <text x="450" y="24" text-anchor="middle" font-family="Segoe UI, Arial, sans-serif" font-size="18" font-weight="700" fill="#047857">Context Engineering</text>
      <rect x="582" y="0" width="206" height="38" rx="19" fill="#FFF7ED"/>
      <text x="685" y="24" text-anchor="middle" font-family="Segoe UI, Arial, sans-serif" font-size="18" font-weight="700" fill="#C2410C">Token Optimization</text>
    </g>
  </g>
</svg>
