<svg width="1600" height="500" viewBox="0 0 1600 500" fill="none" xmlns="http://www.w3.org/2000/svg" role="img" aria-labelledby="title desc">
  <title id="title">Agent Token Optimization Workflow Banner</title>
  <desc id="desc">Abstract funnel-style banner representing context compression and token optimization.</desc>
  <defs>
    <linearGradient id="bg" x1="0" y1="0" x2="1600" y2="500" gradientUnits="userSpaceOnUse">
      <stop stop-color="#F8FBFF"/>
      <stop offset="1" stop-color="#EEF4FF"/>
    </linearGradient>
    <linearGradient id="flowA" x1="80" y1="130" x2="300" y2="130" gradientUnits="userSpaceOnUse">
      <stop stop-color="#DCEAFE"/>
      <stop offset="1" stop-color="#C9D8FB"/>
    </linearGradient>
    <linearGradient id="flowB" x1="92" y1="210" x2="312" y2="210" gradientUnits="userSpaceOnUse">
      <stop stop-color="#D7EEFF"/>
      <stop offset="1" stop-color="#BFE0FF"/>
    </linearGradient>
    <linearGradient id="flowC" x1="104" y1="290" x2="324" y2="290" gradientUnits="userSpaceOnUse">
      <stop stop-color="#D6F6EA"/>
      <stop offset="1" stop-color="#B6F0D6"/>
    </linearGradient>
    <linearGradient id="funnel" x1="300" y1="140" x2="470" y2="250" gradientUnits="userSpaceOnUse">
      <stop stop-color="#BFD4FF"/>
      <stop offset="1" stop-color="#8EB5F5"/>
    </linearGradient>
    <linearGradient id="token" x1="452" y1="172" x2="556" y2="276" gradientUnits="userSpaceOnUse">
      <stop stop-color="#FB923C"/>
      <stop offset="1" stop-color="#EA580C"/>
    </linearGradient>
    <filter id="soft" x="0" y="0" width="1600" height="500" filterUnits="userSpaceOnUse">
      <feGaussianBlur stdDeviation="10"/>
    </filter>
    <filter id="shadow" x="40" y="70" width="560" height="320" filterUnits="userSpaceOnUse">
      <feDropShadow dx="0" dy="8" stdDeviation="10" flood-color="#A9BFE9" flood-opacity="0.24"/>
    </filter>
  </defs>

  <rect width="1600" height="500" rx="28" fill="url(#bg)"/>

  <g opacity="0.55">
    <path d="M84 79H1516" stroke="#D7E3F8" stroke-width="2"/>
    <path d="M84 151H1516" stroke="#D7E3F8" stroke-width="2"/>
    <path d="M84 223H1516" stroke="#D7E3F8" stroke-width="2"/>
    <path d="M84 295H1516" stroke="#D7E3F8" stroke-width="2"/>
    <path d="M84 367H1516" stroke="#D7E3F8" stroke-width="2"/>
    <path d="M84 439H1516" stroke="#D7E3F8" stroke-width="2"/>
    <path d="M120 52V452" stroke="#D7E3F8" stroke-width="2"/>
    <path d="M248 52V452" stroke="#D7E3F8" stroke-width="2"/>
    <path d="M376 52V452" stroke="#D7E3F8" stroke-width="2"/>
    <path d="M504 52V452" stroke="#D7E3F8" stroke-width="2"/>
    <path d="M632 52V452" stroke="#D7E3F8" stroke-width="2"/>
    <path d="M760 52V452" stroke="#D7E3F8" stroke-width="2"/>
    <path d="M888 52V452" stroke="#D7E3F8" stroke-width="2"/>
    <path d="M1016 52V452" stroke="#D7E3F8" stroke-width="2"/>
    <path d="M1144 52V452" stroke="#D7E3F8" stroke-width="2"/>
    <path d="M1272 52V452" stroke="#D7E3F8" stroke-width="2"/>
    <path d="M1400 52V452" stroke="#D7E3F8" stroke-width="2"/>
  </g>

  <g filter="url(#soft)" opacity="0.32">
    <circle cx="1366" cy="116" r="84" fill="#B9D8FF"/>
    <circle cx="1486" cy="182" r="70" fill="#D9E8FF"/>
    <circle cx="1288" cy="356" r="92" fill="#BDEFD8"/>
  </g>

  <g filter="url(#shadow)">
    <rect x="88" y="102" width="238" height="56" rx="22" fill="url(#flowA)" stroke="#A7C2F4" stroke-width="4"/>
    <rect x="96" y="184" width="238" height="56" rx="22" fill="url(#flowB)" stroke="#8FC0F7" stroke-width="4"/>
    <rect x="104" y="266" width="238" height="56" rx="22" fill="url(#flowC)" stroke="#7ED5C1" stroke-width="4"/>

    <path d="M326 130H370" stroke="#6E90DA" stroke-width="6" stroke-linecap="round"/>
    <path d="M334 212H370" stroke="#6E90DA" stroke-width="6" stroke-linecap="round"/>
    <path d="M342 294H370" stroke="#6E90DA" stroke-width="6" stroke-linecap="round"/>

    <path d="M372 108L458 170V254L372 316L300 278V146L372 108Z" fill="url(#funnel)" stroke="#6D92DB" stroke-width="5"/>
    <path d="M332 166L388 166" stroke="#4D73C5" stroke-width="5" stroke-linecap="round"/>
    <path d="M340 212L404 212" stroke="#4D73C5" stroke-width="5" stroke-linecap="round"/>
    <path d="M348 258L420 258" stroke="#4D73C5" stroke-width="5" stroke-linecap="round"/>

    <path d="M458 212H492" stroke="#5B7FD1" stroke-width="8" stroke-linecap="round"/>
    <path d="M478 194L502 212L478 230" fill="none" stroke="#5B7FD1" stroke-width="8" stroke-linecap="round" stroke-linejoin="round"/>

    <circle cx="542" cy="212" r="54" fill="url(#token)" stroke="#C2410C" stroke-width="6"/>
    <circle cx="542" cy="212" r="18" fill="#FFF7ED" opacity="0.95"/>
    <circle cx="542" cy="212" r="76" stroke="#CFE0FB" stroke-width="8"/>
    <circle cx="542" cy="212" r="98" stroke="#E2ECFF" stroke-width="5" stroke-dasharray="8 12"/>
  </g>

  <g transform="translate(640 118)">
    <rect x="0" y="12" width="144" height="24" rx="12" fill="#DBEAFE"/>
    <text x="72" y="29" text-anchor="middle" font-family="Segoe UI, Arial, sans-serif" font-size="13" font-weight="700" fill="#1D4ED8">LOW TOKEN WORKFLOW</text>
    <text x="0" y="110" font-family="Segoe UI, Arial, sans-serif" font-size="72" font-weight="800" fill="#102A43">Agent Token</text>
    <text x="0" y="188" font-family="Segoe UI, Arial, sans-serif" font-size="72" font-weight="800" fill="#102A43">Optimization Workflow</text>
    <text x="2" y="246" font-family="Segoe UI, Arial, sans-serif" font-size="28" font-weight="600" fill="#24507A">Reduce token cost without hurting agent quality.</text>
    <text x="2" y="292" font-family="Segoe UI, Arial, sans-serif" font-size="24" font-weight="400" fill="#476582">Docs, SOPs, templates, and patterns for low-token agent development.</text>
    <g transform="translate(0 334)">
      <rect x="0" y="0" width="126" height="38" rx="19" fill="#E8F1FF"/>
      <text x="63" y="24" text-anchor="middle" font-family="Segoe UI, Arial, sans-serif" font-size="18" font-weight="700" fill="#1E40AF">Codex</text>
      <rect x="142" y="0" width="176" height="38" rx="19" fill="#EAF7FF"/>
      <text x="230" y="24" text-anchor="middle" font-family="Segoe UI, Arial, sans-serif" font-size="18" font-weight="700" fill="#0369A1">Claude Code</text>
      <rect x="334" y="0" width="232" height="38" rx="19" fill="#ECFDF5"/>
      <text x="450" y="24" text-anchor="middle" font-family="Segoe UI, Arial, sans-serif" font-size="18" font-weight="700" fill="#047857">Context Engineering</text>
      <rect x="582" y="0" width="206" height="38" rx="19" fill="#FFF7ED"/>
      <text x="685" y="24" text-anchor="middle" font-family="Segoe UI, Arial, sans-serif" font-size="18" font-weight="700" fill="#C2410C">Token Optimization</text>
    </g>
  </g>
</svg>
