<svg width="1600" height="500" viewBox="0 0 1600 500" fill="none" xmlns="http://www.w3.org/2000/svg" role="img" aria-labelledby="title desc">
  <title id="title">Agent Token Optimization Workflow Banner</title>
  <desc id="desc">Abstract banner showing layered context entering a clean compression funnel and becoming a compact token core.</desc>
  <defs>
    <linearGradient id="bg" x1="0" y1="0" x2="1600" y2="500" gradientUnits="userSpaceOnUse">
      <stop stop-color="#F8FBFF"/>
      <stop offset="1" stop-color="#EEF4FF"/>
    </linearGradient>
    <linearGradient id="flowA" x1="72" y1="128" x2="302" y2="128" gradientUnits="userSpaceOnUse">
      <stop stop-color="#DBEAFE"/>
      <stop offset="1" stop-color="#C7D7FB"/>
    </linearGradient>
    <linearGradient id="flowB" x1="84" y1="210" x2="314" y2="210" gradientUnits="userSpaceOnUse">
      <stop stop-color="#D6ECFF"/>
      <stop offset="1" stop-color="#BEE0FF"/>
    </linearGradient>
    <linearGradient id="flowC" x1="96" y1="292" x2="326" y2="292" gradientUnits="userSpaceOnUse">
      <stop stop-color="#D6F6E8"/>
      <stop offset="1" stop-color="#B5EFD6"/>
    </linearGradient>
    <linearGradient id="funnel" x1="322" y1="120" x2="488" y2="300" gradientUnits="userSpaceOnUse">
      <stop stop-color="#C6D8FF"/>
      <stop offset="1" stop-color="#8FB6F5"/>
    </linearGradient>
    <linearGradient id="token" x1="486" y1="170" x2="592" y2="276" gradientUnits="userSpaceOnUse">
      <stop stop-color="#FB923C"/>
      <stop offset="1" stop-color="#EA580C"/>
    </linearGradient>
    <filter id="soft" x="0" y="0" width="1600" height="500" filterUnits="userSpaceOnUse">
      <feGaussianBlur stdDeviation="10"/>
    </filter>
    <filter id="shadow" x="32" y="80" width="620" height="300" filterUnits="userSpaceOnUse">
      <feDropShadow dx="0" dy="10" stdDeviation="12" flood-color="#A9BFE9" flood-opacity="0.22"/>
    </filter>
  </defs>

  <rect width="1600" height="500" rx="28" fill="url(#bg)"/>

  <g opacity="0.55">
    <path d="M84 79H1516" stroke="#D7E3F8" stroke-width="2"/>
    <path d="M84 151H1516" stroke="#D7E3F8" stroke-width="2"/>
    <path d="M84 223H1516" stroke="#D7E3F8" stroke-width="2"/>
    <path d="M84 295H1516" stroke="#D7E3F8" stroke-width="2"/>
    <path d="M84 367H1516" stroke="#D7E3F8" stroke-width="2"/>
    <path d="M84 439H1516" stroke="#D7E3F8" stroke-width="2"/>
    <path d="M120 52V452" stroke="#D7E3F8" stroke-width="2"/>
    <path d="M248 52V452" stroke="#D7E3F8" stroke-width="2"/>
    <path d="M376 52V452" stroke="#D7E3F8" stroke-width="2"/>
    <path d="M504 52V452" stroke="#D7E3F8" stroke-width="2"/>
    <path d="M632 52V452" stroke="#D7E3F8" stroke-width="2"/>
    <path d="M760 52V452" stroke="#D7E3F8" stroke-width="2"/>
    <path d="M888 52V452" stroke="#D7E3F8" stroke-width="2"/>
    <path d="M1016 52V452" stroke="#D7E3F8" stroke-width="2"/>
    <path d="M1144 52V452" stroke="#D7E3F8" stroke-width="2"/>
    <path d="M1272 52V452" stroke="#D7E3F8" stroke-width="2"/>
    <path d="M1400 52V452" stroke="#D7E3F8" stroke-width="2"/>
  </g>

  <g filter="url(#soft)" opacity="0.30">
    <circle cx="1366" cy="116" r="84" fill="#B9D8FF"/>
    <circle cx="1486" cy="182" r="70" fill="#D9E8FF"/>
    <circle cx="1288" cy="356" r="92" fill="#BDEFD8"/>
  </g>

  <g filter="url(#shadow)">
    <rect x="88" y="104" width="236" height="52" rx="20" fill="url(#flowA)" stroke="#A7C2F4" stroke-width="4"/>
    <rect x="88" y="186" width="236" height="52" rx="20" fill="url(#flowB)" stroke="#8FC0F7" stroke-width="4"/>
    <rect x="88" y="268" width="236" height="52" rx="20" fill="url(#flowC)" stroke="#7ED5C1" stroke-width="4"/>

    <path d="M324 130H350" stroke="#7595DA" stroke-width="5" stroke-linecap="round"/>
    <path d="M324 212H350" stroke="#7595DA" stroke-width="5" stroke-linecap="round"/>
    <path d="M324 294H350" stroke="#7595DA" stroke-width="5" stroke-linecap="round"/>

    <path d="M352 114C393 129 432 157 471 212C432 267 393 295 352 310L352 114Z" fill="url(#funnel)" stroke="#6F93DB" stroke-width="5" stroke-linejoin="round"/>
    <path d="M352 114C387 136 418 163 447 212C418 261 387 288 352 310" stroke="#5E84CF" stroke-width="3" stroke-linecap="round"/>

    <path d="M471 212H505" stroke="#5B7FD1" stroke-width="8" stroke-linecap="round"/>
    <path d="M491 194L515 212L491 230" fill="none" stroke="#5B7FD1" stroke-width="8" stroke-linecap="round" stroke-linejoin="round"/>

    <circle cx="560" cy="212" r="54" fill="url(#token)" stroke="#C2410C" stroke-width="6"/>
    <circle cx="560" cy="212" r="18" fill="#FFF7ED" opacity="0.95"/>
    <circle cx="560" cy="212" r="76" stroke="#D7E5FF" stroke-width="7"/>
    <circle cx="560" cy="212" r="96" stroke="#E5EEFF" stroke-width="4" stroke-dasharray="8 12"/>
  </g>

  <g transform="translate(660 118)">
    <rect x="0" y="12" width="144" height="24" rx="12" fill="#DBEAFE"/>
    <text x="72" y="29" text-anchor="middle" font-family="Segoe UI, Arial, sans-serif" font-size="13" font-weight="700" fill="#1D4ED8">LOW TOKEN WORKFLOW</text>
    <text x="0" y="110" font-family="Segoe UI, Arial, sans-serif" font-size="72" font-weight="800" fill="#102A43">Agent Token</text>
    <text x="0" y="188" font-family="Segoe UI, Arial, sans-serif" font-size="72" font-weight="800" fill="#102A43">Optimization Workflow</text>
    <text x="2" y="246" font-family="Segoe UI, Arial, sans-serif" font-size="28" font-weight="600" fill="#24507A">Reduce token cost without hurting agent quality.</text>
    <text x="2" y="292" font-family="Segoe UI, Arial, sans-serif" font-size="24" font-weight="400" fill="#476582">Docs, SOPs, templates, and patterns for low-token agent development.</text>
    <g transform="translate(0 334)">
      <rect x="0" y="0" width="126" height="38" rx="19" fill="#E8F1FF"/>
      <text x="63" y="24" text-anchor="middle" font-family="Segoe UI, Arial, sans-serif" font-size="18" font-weight="700" fill="#1E40AF">Codex</text>
      <rect x="142" y="0" width="176" height="38" rx="19" fill="#EAF7FF"/>
      <text x="230" y="24" text-anchor="middle" font-family="Segoe UI, Arial, sans-serif" font-size="18" font-weight="700" fill="#0369A1">Claude Code</text>
      <rect x="334" y="0" width="232" height="38" rx="19" fill="#ECFDF5"/>
      <text x="450" y="24" text-anchor="middle" font-family="Segoe UI, Arial, sans-serif" font-size="18" font-weight="700" fill="#047857">Context Engineering</text>
      <rect x="582" y="0" width="206" height="38" rx="19" fill="#FFF7ED"/>
      <text x="685" y="24" text-anchor="middle" font-family="Segoe UI, Arial, sans-serif" font-size="18" font-weight="700" fill="#C2410C">Token Optimization</text>
    </g>
  </g>
</svg>
